# File created by Blade
# Date/Time:  Wed Apr 08 17:24:36 2015
# Frame Rate: 120.000 fps
#------------------------------------------------------
:FULLY-SPECIFIED
:DEGREES
1107
root 10.733965 39.047608 6.865108 205.816839 -7.109012 -135.100892
Spine -8.718216 5.932198 16.101019
Head -11.852458 5.160815 28.582767
LeftShoulder -6.706630 20.368552 22.395109
LeftArm 5.347681 24.754202 -78.825560
LeftForeArm 9.390209 -0.000000 30.907707
LeftHand -13.871370 -0.000000 -12.993357
LeftHandThumb1 -26.253704 0.000000 33.147579
RightShoulder -41.350689 -46.160517 26.213513
RightArm 42.982273 -4.203004 64.931022
RightForeArm 46.988611 -0.000000 35.652831
RightHand -3.393952 -0.000000 11.991430
RightHandThumb1 -24.326973 -0.000000 -32.862282
LeftUpLeg -63.493035 52.219336 -6.678488
LeftLeg 15.460334 -0.000000 -0.000000
LeftFoot -10.840882 29.312806 -6.566219
LeftToeBase 3.437361 -0.000000 -0.000000
RightUpLeg -71.179882 -35.963714 -19.169391
RightLeg 152.361779 -0.000000 -0.000000
RightFoot 14.358793 7.586183 10.757825
RightToeBase -6.677588 -0.000000 0.000000
1108
root 10.728352 39.044699 6.863070 205.735106 -7.144851 -135.129943
Spine -8.533314 5.760680 16.078360
Head -11.847332 5.170082 28.667866
LeftShoulder -6.700173 20.353776 22.415643
LeftArm 5.326958 24.780656 -78.762808
LeftForeArm 9.360076 -0.000000 30.898689
LeftHand -13.891546 -0.000000 -13.031847
LeftHandThumb1 -26.253704 0.000000 33.147579
RightShoulder -41.281385 -46.143684 26.137305
RightArm 42.923466 -4.222780 64.963808
RightForeArm 46.916357 0.000000 35.556417
RightHand -3.476012 -0.000000 12.092680
RightHandThumb1 -24.326973 -0.000000 -32.862282
LeftUpLeg -63.493518 52.278070 -6.827910
LeftLeg 15.367915 -0.000000 -0.000000
LeftFoot -10.813549 29.200198 -6.465961
LeftToeBase 3.469001 -0.000000 -0.000000
RightUpLeg -70.471221 -35.821338 -19.652793
RightLeg 152.407477 -0.000000 -0.000000
RightFoot 14.311432 7.661976 10.496388
RightToeBase -6.847490 -0.000000 0.000000
1109
root 10.722774 39.042742 6.863468 205.710164 -7.201284 -135.157367
Spine -8.429125 5.583654 16.063123
Head -11.814368 5.167493 28.740161
LeftShoulder -6.700571 20.334156 22.440891
LeftArm 5.278935 24.832779 -78.708712
LeftForeArm 9.293751 0.000000 30.873792
LeftHand -13.962368 -0.000000 -13.086199
LeftHandThumb1 -26.253704 0.000000 33.147579
RightShoulder -41.197296 -46.143961 25.985360
RightArm 42.858032 -4.323753 65.018857
RightForeArm 46.846362 -0.000000 35.427967
RightHand -3.470760 -0.000000 12.171837
RightHandThumb1 -24.326973 -0.000000 -32.862282
LeftUpLeg -63.555159 52.281460 -6.977148
LeftLeg 15.308336 -0.000000 -0.000000
LeftFoot -10.778143 29.115354 -6.367883
LeftToeBase 3.507092 -0.000000 -0.000000
RightUpLeg -69.789298 -35.702126 -20.115091
RightLeg 152.450363 -0.000000 -0.000000
RightFoot 14.272417 7.823708 10.237293
RightToeBase -6.876637 -0.000000 0.000000
1110
root 10.717311 39.039498 6.860402 205.586217 -7.251475 -135.206941
Spine -8.198849 5.406108 16.010290
Head -11.862164 5.160029 28.856634
LeftShoulder -6.698094 20.273010 22.494795
LeftArm 5.227348 24.833924 -78.708728
LeftForeArm 9.430261 0.000000 30.835233
LeftHand -13.894108 -0.000000 -13.164457
LeftHandThumb1 -26.253704 0.000000 33.147579
RightShoulder -41.079626 -46.087140 25.849140
RightArm 42.738632 -4.385060 65.090395
RightForeArm 46.812926 -0.000000 35.343944
RightHand -3.524432 -0.000000 12.127268
RightHandThumb1 -24.326973 -0.000000 -32.862282
LeftUpLeg -63.475123 52.304077 -7.035723
LeftLeg 15.273622 -0.000000 -0.000000
LeftFoot -10.748024 29.033202 -6.281556
LeftToeBase 3.508099 -0.000000 -0.000000
RightUpLeg -68.975950 -35.518815 -20.703167
RightLeg 152.502567 -0.000000 -0.000000
RightFoot 14.336341 8.016052 10.044855
RightToeBase -7.108982 -0.000000 0.000000
1111
root 10.710335 39.039604 6.861302 205.592569 -7.289614 -135.212731
Spine -8.126639 5.334128 15.986330
Head -11.893016 5.114690 28.929592
LeftShoulder -6.667865 20.221833 22.547275
LeftArm 5.177593 24.977356 -78.658690
LeftForeArm 9.496910 -0.000000 30.828388
LeftHand -13.918990 -0.000000 -13.134078
LeftHandThumb1 -26.253704 0.000000 33.147579
RightShoulder -41.123491 -46.086901 25.841302
RightArm 42.678263 -4.384073 65.208573
RightForeArm 46.761692 -0.000000 35.304268
RightHand -3.613977 -0.000000 12.117013
RightHandThumb1 -24.326973 -0.000000 -32.862282
LeftUpLeg -63.598567 52.313991 -7.180135
LeftLeg 15.280297 -0.000000 -0.000000
LeftFoot -10.730499 28.955893 -6.223706
LeftToeBase 3.507982 -0.000000 -0.000000
RightUpLeg -68.364619 -35.325305 -21.105682
RightLeg 152.547397 -0.000000 -0.000000
RightFoot 14.395278 8.119999 9.896811
RightToeBase -7.206480 -0.000000 0.000000
1112
root 10.702903 39.038538 6.862693 205.605265 -7.335938 -135.230122
Spine -8.047960 5.265003 15.950146
Head -11.975692 5.086991 28.998819
LeftShoulder -6.656479 20.186575 22.604608
LeftArm 5.142494 25.067964 -78.633129
LeftForeArm 9.447752 0.000000 30.808428
LeftHand -13.851096 0.000000 -13.013454
LeftHandThumb1 -26.253704 0.000000 33.147579
RightShoulder -41.177225 -46.083339 25.873717
RightArm 42.646611 -4.413149 65.225626
RightForeArm 46.679551 0.000000 35.251428
RightHand -3.649170 -0.000000 12.045726
RightHandThumb1 -24.326973 -0.000000 -32.862282
LeftUpLeg -63.680595 52.279396 -7.255319
LeftLeg 15.321164 -0.000000 -0.000000
LeftFoot -10.734260 28.923882 -6.221399
LeftToeBase 3.467316 -0.000000 -0.000000
RightUpLeg -67.776397 -35.096652 -21.517194
RightLeg 152.593376 -0.000000 -0.000000
RightFoot 14.550293 8.170091 9.796422
RightToeBase -7.298024 -0.000000 0.000000
1113
root 10.695278 39.036826 6.863243 205.624047 -7.411131 -135.243466
Spine -7.984130 5.197195 15.938628
Head -12.096150 5.060883 29.031858
LeftShoulder -6.636305 20.206480 22.616278
LeftArm 5.137060 25.062349 -78.576111
LeftForeArm 9.586431 0.000000 30.822122
LeftHand -13.860531 -0.000000 -13.127258
LeftHandThumb1 -26.253704 0.000000 33.147579
RightShoulder -41.216218 -46.055378 25.898856
RightArm 42.552538 -4.440151 65.206453
RightForeArm 46.598862 -0.000000 35.274894
RightHand -3.673014 -0.000000 11.922471
RightHandThumb1 -24.326973 -0.000000 -32.862282
LeftUpLeg -63.732306 52.190138 -7.249570
LeftLeg 15.400164 -0.000000 -0.000000
LeftFoot -10.740188 28.920926 -6.217399
LeftToeBase 3.411252 -0.000000 -0.000000
RightUpLeg -67.177125 -34.910146 -21.925427
RightLeg 152.634789 -0.000000 -0.000000
RightFoot 14.739537 8.205239 9.650586
RightToeBase -7.282530 -0.000000 0.000000
1114
root 10.688136 39.033332 6.863710 205.629383 -7.471095 -135.253656
Spine -7.900864 5.151530 15.921865
Head -12.225410 5.047847 29.044192
LeftShoulder -6.614988 20.227177 22.640385
LeftArm 5.135676 25.041568 -78.550751
LeftForeArm 9.675513 -0.000000 30.815499
LeftHand -13.886388 -0.000000 -13.139019
LeftHandThumb1 -26.253704 0.000000 33.147579
RightShoulder -41.242716 -46.051240 25.921646
RightArm 42.442426 -4.436054 65.227689
RightForeArm 46.424224 -0.000000 35.341421
RightHand -3.751379 -0.000000 11.890151
RightHandThumb1 -24.326973 -0.000000 -32.862282
LeftUpLeg -63.741860 52.093584 -7.175289
LeftLeg 15.518158 -0.000000 -0.000000
LeftFoot -10.769607 28.970359 -6.255679
LeftToeBase 3.313864 -0.000000 -0.000000
RightUpLeg -66.588330 -34.715083 -22.319723
RightLeg 152.686294 -0.000000 -0.000000
RightFoot 14.903219 8.190083 9.630110
RightToeBase -7.269714 -0.000000 0.000000
1115
root 10.680343 39.026503 6.865219 205.573094 -7.555421 -135.282140
Spine -7.735550 5.063669 15.911522
Head -12.398325 5.073864 29.052088
LeftShoulder -6.603432 20.183688 22.669366
LeftArm 5.108777 25.098201 -78.525900
LeftForeArm 9.620313 -0.000000 30.763296
LeftHand -13.800605 -0.000000 -13.139938
LeftHandThumb1 -26.253704 0.000000 33.147579
RightShoulder -41.234420 -46.040344 25.918655
RightArm 42.315209 -4.471911 65.176880
RightForeArm 46.402141 0.000000 35.439106
RightHand -3.768222 0.000000 11.748195
RightHandThumb1 -24.326973 -0.000000 -32.862282
LeftUpLeg -63.648955 51.960630 -7.013768
LeftLeg 15.655399 -0.000000 -0.000000
LeftFoot -10.801181 29.039568 -6.246821
LeftToeBase 3.259981 -0.000000 -0.000000
RightUpLeg -65.938823 -34.483370 -22.786555
RightLeg 152.738833 -0.000000 -0.000000
RightFoot 15.163603 8.127810 9.671987
RightToeBase -6.931492 -0.000000 0.000000
1116
root 10.674835 39.010782 6.857044 205.224391 -7.619452 -135.333473
Spine -7.207978 4.877687 15.902948
Head -12.634641 5.143282 29.042624
LeftShoulder -6.607960 20.125901 22.683640
LeftArm 5.106371 25.085100 -78.523301
LeftForeArm 9.553842 -0.000000 30.682590
LeftHand -13.794189 0.000000 -13.169015
LeftHandThumb1 -26.253704 0.000000 33.147579
RightShoulder -41.136486 -46.029466 25.868355
RightArm 42.220580 -4.525668 65.094345
RightForeArm 46.450516 0.000000 35.563529
RightHand -3.758438 -0.000000 11.572019
RightHandThumb1 -24.326973 -0.000000 -32.862282
LeftUpLeg -63.135124 51.915753 -6.579625
LeftLeg 15.807091 -0.000000 -0.000000
LeftFoot -10.883474 29.065528 -6.189445
LeftToeBase 3.184233 -0.000000 -0.000000
RightUpLeg -64.936780 -34.183119 -23.484055
RightLeg 152.782884 -0.000000 -0.000000
RightFoot 15.515784 8.101250 9.277946
RightToeBase -7.294070 -0.000000 0.000000
